<svg width="55" height="55" viewBox="0 0 55 55" fill="none" xmlns="http://www.w3.org/2000/svg">
<path d="M45.5556 52.5C21.7766 52.5 2.5 33.2233 2.5 9.44444C2.5 8.37161 2.53925 7.30794 2.61636 6.25481C2.70486 5.04617 2.74911 4.44186 3.06583 3.89175C3.32817 3.43614 3.79306 3.00406 4.26661 2.77569C4.83836 2.5 5.50522 2.5 6.83892 2.5H14.6648C15.7863 2.5 16.3471 2.5 16.8278 2.68458C17.2525 2.84764 17.6306 3.11247 17.9289 3.45583C18.2667 3.84453 18.4583 4.37156 18.8416 5.42558L22.0808 14.3335C22.5267 15.5598 22.7497 16.173 22.7119 16.7547C22.6786 17.2677 22.5033 17.7613 22.2061 18.1807C21.8691 18.6563 21.3096 18.992 20.1906 19.6634L16.3889 21.9444C19.7275 29.3025 25.6947 35.2775 33.0556 38.6111L35.3367 34.8094C36.0081 33.6903 36.3436 33.1308 36.8192 32.7939C37.2386 32.4967 37.7322 32.3214 38.2453 32.2881C38.8269 32.2503 39.4403 32.4733 40.6667 32.9192L49.5744 36.1583C50.6283 36.5417 51.1556 36.7333 51.5442 37.0711C51.8875 37.3694 52.1525 37.7475 52.3153 38.1722C52.5 38.6528 52.5 39.2136 52.5 40.3353V48.1611C52.5 49.4947 52.5 50.1617 52.2242 50.7333C51.9958 51.2069 51.5639 51.672 51.1083 51.9342C50.5581 52.2508 49.9539 52.295 48.7453 52.3836C47.6919 52.4608 46.6283 52.5 45.5556 52.5Z" stroke="black" stroke-width="5" stroke-linecap="round" stroke-linejoin="round"/>
</svg>
