<svg width="55" height="55" viewBox="0 0 55 55" fill="none" xmlns="http://www.w3.org/2000/svg">
<path d="M28.1475 29.653C27.9725 29.628 27.7475 29.628 27.5475 29.653C23.1475 29.503 19.6475 25.903 19.6475 21.478C19.6475 16.953 23.2975 13.278 27.8475 13.278C32.3725 13.278 36.0475 16.953 36.0475 21.478C36.0225 25.903 32.5475 29.503 28.1475 29.653Z" stroke="black" stroke-width="3.75" stroke-linecap="round" stroke-linejoin="round"/>
<path d="M44.6952 46.1533C40.2452 50.2283 34.3452 52.7033 27.8452 52.7033C21.3451 52.7033 15.4451 50.2283 10.9951 46.1533C11.2451 43.8033 12.7451 41.5033 15.4201 39.7033C22.2701 35.1533 33.4702 35.1533 40.2702 39.7033C42.9452 41.5033 44.4452 43.8033 44.6952 46.1533Z" stroke="black" stroke-width="3.75" stroke-linecap="round" stroke-linejoin="round"/>
<path d="M27.8457 52.703C41.6527 52.703 52.8457 41.51 52.8457 27.703C52.8457 13.8959 41.6527 2.703 27.8457 2.703C14.0386 2.703 2.8457 13.8959 2.8457 27.703C2.8457 41.51 14.0386 52.703 27.8457 52.703Z" stroke="black" stroke-width="3.75" stroke-linecap="round" stroke-linejoin="round"/>
</svg>
