<svg width="54" height="54" viewBox="0 0 54 54" fill="none" xmlns="http://www.w3.org/2000/svg">
<path d="M26.7998 52.2C40.6068 52.2 51.7998 41.007 51.7998 27.2C51.7998 13.3928 40.6068 2.19995 26.7998 2.19995C12.9927 2.19995 1.7998 13.3928 1.7998 27.2C1.7998 41.007 12.9927 52.2 26.7998 52.2Z" stroke="black" stroke-width="3.6" stroke-linecap="round" stroke-linejoin="round"/>
<path d="M29.3162 16.1191C29.3018 16.7738 29.0299 17.3966 28.5594 17.852C28.0886 18.3074 27.4572 18.5587 26.8024 18.5514C26.3251 18.5355 25.8632 18.3795 25.474 18.1027C25.0845 17.826 24.7856 17.4406 24.614 16.995C24.4421 16.5494 24.4053 16.063 24.5083 15.5966C24.611 15.1303 24.8489 14.7046 25.1921 14.3725C25.5353 14.0404 25.9686 13.8166 26.438 13.7292C26.9075 13.6417 27.3926 13.6943 27.8324 13.8806C28.2721 14.0668 28.6472 14.3784 28.911 14.7765C29.1751 15.1745 29.3159 15.6415 29.3162 16.1191ZM24.8837 38.7679V24.2273C24.8764 23.9719 24.9207 23.7176 25.0143 23.48C25.1078 23.2424 25.2483 23.0262 25.4278 22.8446C25.607 22.6627 25.8213 22.5189 26.0575 22.4222C26.2937 22.3254 26.5472 22.2773 26.8024 22.2811C27.0543 22.2808 27.3037 22.3316 27.5353 22.4306C27.767 22.5292 27.9764 22.6738 28.1507 22.8557C28.3251 23.0376 28.4605 23.2527 28.5494 23.4884C28.6383 23.7241 28.6783 23.9754 28.6672 24.2273V38.7679C28.6672 39.0162 28.6183 39.2622 28.5235 39.4916C28.4283 39.7211 28.2889 39.9297 28.1132 40.1054C27.9375 40.2811 27.7291 40.4203 27.4997 40.5154C27.2699 40.6106 27.024 40.6595 26.7756 40.6595C26.5272 40.6595 26.281 40.6106 26.0516 40.5154C25.8221 40.4203 25.6135 40.2811 25.4378 40.1054C25.2621 39.9297 25.1226 39.7211 25.0278 39.4916C24.9326 39.2622 24.8837 39.0162 24.8837 38.7679Z" fill="black"/>
</svg>
