<svg width="50" height="52" viewBox="0 0 50 52" fill="none" xmlns="http://www.w3.org/2000/svg">
<path fill-rule="evenodd" clip-rule="evenodd" d="M45.4076 20.867C44.6168 12.7549 39.821 0 24.9998 0C10.1785 0 5.3827 12.7549 4.59189 20.867C1.81773 21.9199 -0.0121543 24.5834 6.07817e-05 27.5506V31.122C6.07817e-05 35.0668 3.19804 38.2648 7.14288 38.2648C11.0877 38.2648 14.2856 35.0668 14.2856 31.122V27.5506C14.2728 24.6475 12.5101 22.0387 9.82141 20.9436C10.3316 16.2498 12.8316 5.10197 24.9998 5.10197C37.168 5.10197 39.6424 16.2498 40.1526 20.9436C37.4693 22.0411 35.7156 24.6516 35.7139 27.5506V31.122C35.725 33.8643 37.2996 36.3599 39.77 37.5505C38.6985 39.5658 35.969 42.2953 29.2599 43.1116C27.9188 41.0752 25.3241 40.2723 23.0673 41.1956C20.8104 42.1188 19.5223 44.5099 19.9929 46.9025C20.4635 49.295 22.5614 51.0197 24.9998 51.0197C26.9266 51.009 28.6831 49.9137 29.5405 48.1881C40.4842 46.9381 43.9791 41.3004 45.076 37.9841C48.0436 37.0229 50.0394 34.2412 49.9994 31.122V27.5506C50.0117 24.5834 48.1818 21.9199 45.4076 20.867ZM9.18366 31.122C9.18366 32.2491 8.26997 33.1628 7.14288 33.1628C6.01578 33.1628 5.10209 32.2491 5.10209 31.122V27.5506C5.10209 26.8215 5.49106 26.1478 6.12248 25.7833C6.75391 25.4187 7.53185 25.4187 8.16327 25.7833C8.79469 26.1478 9.18366 26.8215 9.18366 27.5506V31.122ZM40.8159 27.5506C40.8159 26.4235 41.7296 25.5098 42.8567 25.5098C43.9837 25.5098 44.8974 26.4235 44.8974 27.5506V31.122C44.8974 32.2491 43.9837 33.1628 42.8567 33.1628C41.7296 33.1628 40.8159 32.2491 40.8159 31.122V27.5506Z" fill="black"/>
</svg>
