<?xml version="1.0" encoding="UTF-8" standalone="no"?>
<svg
   xmlns:dc="http://purl.org/dc/elements/1.1/"
   xmlns:cc="http://creativecommons.org/ns#"
   xmlns:rdf="http://www.w3.org/1999/02/22-rdf-syntax-ns#"
   xmlns:svg="http://www.w3.org/2000/svg"
   xmlns="http://www.w3.org/2000/svg"
   xmlns:sodipodi="http://sodipodi.sourceforge.net/DTD/sodipodi-0.dtd"
   xmlns:inkscape="http://www.inkscape.org/namespaces/inkscape"
   width="95.207001"
   height="15.843"
   viewBox="0 0 95.207001 15.843"
   version="1.1"
   id="svg857"
   sodipodi:docname="booking.com.svg"
   inkscape:version="1.0.2 (e86c8708, 2021-01-15)">
  <metadata
     id="metadata863">
    <rdf:RDF>
      <cc:Work
         rdf:about="">
        <dc:format>image/svg+xml</dc:format>
        <dc:type
           rdf:resource="http://purl.org/dc/dcmitype/StillImage" />
        <dc:title></dc:title>
      </cc:Work>
    </rdf:RDF>
  </metadata>
  <defs
     id="defs861" />
  <sodipodi:namedview
     pagecolor="#ffffff"
     bordercolor="#666666"
     borderopacity="1"
     objecttolerance="10"
     gridtolerance="10"
     guidetolerance="10"
     inkscape:pageopacity="0"
     inkscape:pageshadow="2"
     inkscape:window-width="1378"
     inkscape:window-height="798"
     id="namedview859"
     showgrid="false"
     fit-margin-top="0"
     fit-margin-left="0"
     fit-margin-right="0"
     fit-margin-bottom="0"
     inkscape:zoom="11.875"
     inkscape:cx="48"
     inkscape:cy="8"
     inkscape:window-x="138"
     inkscape:window-y="38"
     inkscape:window-maximized="0"
     inkscape:current-layer="g849" />
  <g
     fill="none"
     fill-rule="evenodd"
     id="g855"
     transform="translate(0,-4)">
    <g
       id="g853">
      <g
         id="g851">
        <path
           d="M 0,0 H 96 V 24 H 0 Z"
           id="path843" />
        <g
           fill-rule="nonzero"
           id="g849">
          <path
             fill="#273b7d"
             d="m 13.634,10.49 c -1.243,0 -2.107,-0.997 -2.107,-2.421 0,-1.424 0.864,-2.42 2.107,-2.42 1.25,0 2.124,0.996 2.124,2.42 0,1.446 -0.856,2.42 -2.124,2.42 z m 0,-6.97 c -2.63,0 -4.539,1.914 -4.539,4.549 0,2.634 1.909,4.547 4.54,4.547 2.639,0 4.555,-1.913 4.555,-4.547 0,-2.635 -1.916,-4.548 -4.556,-4.548 M 34.601,8.328 C 34.499,8.136 34.382,7.973 34.258,7.844 L 34.178,7.76 34.262,7.68 c 0.133,-0.141 0.254,-0.293 0.362,-0.453 l 2.318,-3.446 h -2.814 l -1.74,2.696 c -0.1,0.144 -0.299,0.217 -0.596,0.217 H 31.395 V 1.598 c 0,-1.02 -0.635,-1.158 -1.321,-1.158 h -1.175 l 0.002,12.03 h 2.494 V 8.86 h 0.233 c 0.284,0 0.478,0.033 0.567,0.187 l 1.375,2.597 c 0.384,0.704 0.767,0.824 1.487,0.824 h 1.91 L 35.545,10.114 34.601,8.327 M 46.628,3.52 c -1.269,0 -2.078,0.567 -2.532,1.047 L 43.945,4.722 43.891,4.512 C 43.758,3.998 43.309,3.715 42.633,3.715 h -1.118 l 0.007,8.753 H 44 V 8.435 c 0,-0.395 0.051,-0.737 0.155,-1.05 0.275,-0.944 1.044,-1.532 2.006,-1.532 0.773,0 1.075,0.41 1.075,1.473 v 3.813 c 0,0.906 0.416,1.33 1.317,1.33 h 1.178 L 49.727,6.902 c 0,-2.212 -1.07,-3.381 -3.098,-3.381 M 38.884,3.814 H 37.7 l 0.008,6.692 v 1.962 h 1.26 l 0.045,10e-4 0.587,-10e-4 h 0.585 v -0.004 h 0.004 l 0.005,-7.336 c 0,-0.885 -0.427,-1.314 -1.312,-1.314 M 54.487,3.521 c 1.165,0 1.882,0.412 2.282,0.759 l 0.115,0.1 0.069,-0.134 c 0.181,-0.343 0.543,-0.531 1.013,-0.531 h 1.152 l -0.009,7.996 c 0,3.049 -2.464,4.132 -4.575,4.132 -1.025,0 -2.16,-0.276 -3.03,-0.74 l -0.173,-0.092 0.278,-0.713 0.197,-0.488 c 0.213,-0.529 0.521,-0.66 1.047,-0.502 0.403,0.147 1.005,0.308 1.667,0.308 1.36,0 2.112,-0.642 2.112,-1.807 v -0.242 l -0.191,0.144 c -0.495,0.376 -1.118,0.56 -1.907,0.56 -2.31,0 -3.924,-1.813 -3.924,-4.407 0,-2.598 1.56,-4.343 3.877,-4.343 z m -31.17,0 c 2.635,0 4.555,1.913 4.555,4.548 0,2.634 -1.92,4.547 -4.556,4.547 -2.631,0 -4.54,-1.913 -4.54,-4.547 0,-2.635 1.909,-4.548 4.54,-4.548 z M 4.13,0.44 c 2.285,0 3.761,1.225 3.761,3.123 0,1.24 -0.624,1.959 -0.997,2.278 L 6.574,6.114 6.94,6.32 c 0.89,0.5 1.42,1.483 1.42,2.633 0,2.136 -1.639,3.515 -4.178,3.515 H 0 V 1.694 C 0.008,1.014 0.55,0.464 1.227,0.44 Z m 19.186,5.208 c -1.242,0 -2.107,0.996 -2.107,2.42 0,1.424 0.865,2.42 2.107,2.42 1.268,0 2.123,-0.974 2.123,-2.42 0,-1.424 -0.876,-2.42 -2.123,-2.42 z M 4.35,7.164 H 2.967 C 2.522,7.226 2.321,7.494 2.321,8.012 v 2.42 l 2.03,0.002 C 5.354,10.433 5.976,9.822 5.977,8.79 5.977,7.785 5.338,7.164 4.35,7.164 Z m 50.495,-1.45 c -1.584,0 -1.707,1.595 -1.707,2.084 0,1.111 0.482,2.297 1.837,2.297 0.777,0 1.706,-0.384 1.706,-2.215 0,-1.94 -1.05,-2.166 -1.836,-2.166 z M 4.115,2.413 H 3.077 C 2.557,2.447 2.321,2.712 2.321,3.269 v 2.034 h 1.827 c 1.026,0 1.39,-0.791 1.39,-1.47 0,-0.889 -0.533,-1.42 -1.423,-1.42 z M 38.725,0 c 0.811,0 1.47,0.656 1.47,1.467 0,0.81 -0.659,1.467 -1.47,1.467 -0.808,0 -1.464,-0.657 -1.464,-1.467 C 37.261,0.656 37.917,0 38.725,0 Z"
             transform="translate(0,4)"
             id="path845" />
          <path
             fill="#499fdd"
             d="m 92.327,3.52 c -1.026,0 -2.018,0.487 -2.655,1.303 l -0.179,0.23 -0.14,-0.257 C 88.895,3.95 88.106,3.521 87.01,3.521 c -1.15,0 -1.92,0.649 -2.279,1.035 L 84.497,4.813 84.407,4.475 C 84.276,3.989 83.848,3.721 83.2,3.721 h -1.04 l -0.01,8.748 h 2.362 V 8.607 c 0,-0.338 0.042,-0.673 0.125,-1.023 0.226,-0.933 0.846,-1.937 1.887,-1.836 0.643,0.062 0.956,0.564 0.956,1.535 v 5.186 h 2.379 V 8.607 c 0,-0.422 0.039,-0.739 0.133,-1.056 0.191,-0.891 0.838,-1.805 1.843,-1.805 0.727,0 0.996,0.417 0.996,1.537 v 3.907 c 0,0.884 0.39,1.28 1.262,1.28 h 1.112 l 0.002,-5.586 c 0,-2.231 -0.97,-3.363 -2.88,-3.363 m -24.095,0 c 1.277,0 3.175,0.544 3.175,2.046 V 6.706 L 70.113,6.705 c -0.109,0 -0.66,-0.033 -0.841,-0.644 L 69.26,6.016 c -0.08,-0.27 -0.584,-0.43 -1.028,-0.43 -1.367,0 -2.322,1.015 -2.322,2.466 0,1.68 1.232,2.434 2.451,2.434 1.338,0 2.354,-1.079 2.361,-1.087 l 0.135,-0.145 1.025,1.711 -0.068,0.084 c -0.012,0.016 -1.287,1.567 -3.632,1.567 -2.702,0 -4.662,-1.911 -4.662,-4.546 0,-2.635 1.981,-4.55 4.712,-4.55 z m 8.336,0 c 2.637,0 4.556,1.913 4.556,4.548 0,2.634 -1.92,4.547 -4.556,4.547 -2.631,0 -4.54,-1.913 -4.54,-4.547 0,-2.635 1.909,-4.548 4.54,-4.548 z M 61.61,9.682 c 0.81,0 1.47,0.656 1.47,1.468 0,0.809 -0.66,1.466 -1.47,1.466 -0.808,0 -1.464,-0.657 -1.464,-1.466 0,-0.812 0.656,-1.468 1.464,-1.468 z M 76.568,5.649 c -1.242,0 -2.108,0.996 -2.108,2.42 0,1.424 0.866,2.42 2.108,2.42 1.268,0 2.124,-0.974 2.124,-2.42 0,-1.424 -0.876,-2.42 -2.124,-2.42 z"
             transform="translate(0,4)"
             id="path847" />
        </g>
      </g>
    </g>
  </g>
</svg>
