<?xml version="1.0" encoding="UTF-8" standalone="no"?>
<svg
   xmlns:dc="http://purl.org/dc/elements/1.1/"
   xmlns:cc="http://creativecommons.org/ns#"
   xmlns:rdf="http://www.w3.org/1999/02/22-rdf-syntax-ns#"
   xmlns:svg="http://www.w3.org/2000/svg"
   xmlns="http://www.w3.org/2000/svg"
   xmlns:sodipodi="http://sodipodi.sourceforge.net/DTD/sodipodi-0.dtd"
   xmlns:inkscape="http://www.inkscape.org/namespaces/inkscape"
   class="header"
   enable-background="new 0 0 176 56"
   fill="none"
   height="30.03125"
   preserveAspectRatio="xMinYMin meet"
   viewBox="0 0 171.09 42.04375"
   width="121.51279"
   version="1.1"
   id="svg835"
   sodipodi:docname="bookety.com.svg"
   inkscape:version="1.0.2 (e86c8708, 2021-01-15)">
  <metadata
     id="metadata841">
    <rdf:RDF>
      <cc:Work
         rdf:about="">
        <dc:format>image/svg+xml</dc:format>
        <dc:type
           rdf:resource="http://purl.org/dc/dcmitype/StillImage" />
        <dc:title></dc:title>
      </cc:Work>
    </rdf:RDF>
  </metadata>
  <defs
     id="defs839" />
  <sodipodi:namedview
     pagecolor="#ffffff"
     bordercolor="#666666"
     borderopacity="1"
     objecttolerance="10"
     gridtolerance="10"
     guidetolerance="10"
     inkscape:pageopacity="0"
     inkscape:pageshadow="2"
     inkscape:window-width="1592"
     inkscape:window-height="808"
     id="namedview837"
     showgrid="false"
     fit-margin-top="0"
     fit-margin-left="0"
     fit-margin-right="0"
     fit-margin-bottom="0"
     inkscape:zoom="5.296"
     inkscape:cx="62.5"
     inkscape:cy="20"
     inkscape:window-x="0"
     inkscape:window-y="38"
     inkscape:window-maximized="0"
     inkscape:current-layer="svg835" />
  <path
     d="M 13.86,32.4 C 12.1,32.4 10.56,32.0333 9.24,31.3 7.92,30.5373 6.87867,29.4813 6.116,28.132 V 31.96 H 0 V -0.16 h 7.04 v 12.804 c 0.7333,-1.32 1.7453,-2.3467 3.036,-3.08 1.2907,-0.7627 2.8013,-1.144 4.532,-1.144 1.9653,0 3.696,0.5427 5.192,1.628 1.5253,1.0853 2.7133,2.5373 3.564,4.356 0.8507,1.8187 1.276,3.8573 1.276,6.116 0,2.2293 -0.4693,4.2533 -1.408,6.072 -0.9387,1.7893 -2.2293,3.212 -3.872,4.268 -1.6133,1.0267 -3.4467,1.54 -5.5,1.54 z m -1.98,-5.94 c 1.6427,0 2.9773,-0.572 4.004,-1.716 1.0267,-1.144 1.54,-2.552 1.54,-4.224 0,-1.0853 -0.2347,-2.0973 -0.704,-3.036 -0.44,-0.9387 -1.056,-1.6867 -1.848,-2.244 -0.7627,-0.5573 -1.6427,-0.836 -2.64,-0.836 -1.1147,0 -2.1413,0.3813 -3.08,1.144 -0.9387,0.7627 -1.64267,1.716 -2.112,2.86 v 4.84 c 0.46933,0.9973 1.144,1.7893 2.024,2.376 0.9093,0.5573 1.848,0.836 2.816,0.836 z m 27.2645,5.94 c -2.64,0 -4.884,-0.5573 -6.732,-1.672 -1.8186,-1.1147 -3.212,-2.5813 -4.18,-4.4 -0.968,-1.8187 -1.452,-3.784 -1.452,-5.896 0,-2.1413 0.484,-4.1213 1.452,-5.94 0.968,-1.8187 2.376,-3.2853 4.224,-4.4 1.848,-1.1147 4.0774,-1.672 6.688,-1.672 2.6107,0 4.84,0.5573 6.688,1.672 1.848,1.1147 3.256,2.5813 4.224,4.4 0.968,1.8187 1.452,3.7987 1.452,5.94 0,2.112 -0.484,4.0773 -1.452,5.896 -0.968,1.8187 -2.376,3.2853 -4.224,4.4 -1.848,1.1147 -4.0773,1.672 -6.688,1.672 z m -5.148,-11.968 c 0,1.7893 0.484,3.2413 1.452,4.356 0.9974,1.1147 2.2294,1.672 3.696,1.672 1.4374,0 2.64,-0.5573 3.608,-1.672 0.9974,-1.1147 1.496,-2.5667 1.496,-4.356 0,-1.7893 -0.4986,-3.2413 -1.496,-4.356 -0.968,-1.1147 -2.1706,-1.672 -3.608,-1.672 -1.4666,0 -2.6986,0.5573 -3.696,1.672 -0.968,1.1147 -1.452,2.5667 -1.452,4.356 z M 66,32.4 c -2.64,0 -4.884,-0.5573 -6.732,-1.672 -1.8187,-1.1147 -3.212,-2.5813 -4.18,-4.4 -0.968,-1.8187 -1.452,-3.784 -1.452,-5.896 0,-2.1413 0.484,-4.1213 1.452,-5.94 0.968,-1.8187 2.376,-3.2853 4.224,-4.4 C 61.16,8.9773 63.3893,8.42 66,8.42 c 2.6107,0 4.84,0.5573 6.688,1.672 1.848,1.1147 3.256,2.5813 4.224,4.4 0.968,1.8187 1.452,3.7987 1.452,5.94 0,2.112 -0.484,4.0773 -1.452,5.896 -0.968,1.8187 -2.376,3.2853 -4.224,4.4 C 70.84,31.8427 68.6107,32.4 66,32.4 Z M 60.852,20.432 c 0,1.7893 0.484,3.2413 1.452,4.356 0.9973,1.1147 2.2293,1.672 3.696,1.672 1.4373,0 2.64,-0.5573 3.608,-1.672 0.9973,-1.1147 1.496,-2.5667 1.496,-4.356 0,-1.7893 -0.4987,-3.2413 -1.496,-4.356 C 68.64,14.9613 67.4373,14.404 66,14.404 c -1.4667,0 -2.6987,0.5573 -3.696,1.672 -0.968,1.1147 -1.452,2.5667 -1.452,4.356 z m 36.5355,11.528 -6.028,-9.24 -2.464,2.508 v 6.732 h -7.04 V -0.16 h 7.04 v 18.568 l 7.832,-9.548 h 7.4355 l -8.3155,9.944 9.0195,13.156 z M 116.79,32.4 c -2.611,0 -4.84,-0.5427 -6.688,-1.628 -1.848,-1.0853 -3.271,-2.5227 -4.268,-4.312 -0.968,-1.7893 -1.452,-3.7253 -1.452,-5.808 0,-2.2293 0.484,-4.268 1.452,-6.116 0.968,-1.848 2.376,-3.3293 4.224,-4.444 1.848,-1.1147 4.092,-1.672 6.732,-1.672 2.611,0 4.84,0.5573 6.688,1.672 1.848,1.1147 3.241,2.5813 4.18,4.4 0.968,1.8187 1.452,3.7693 1.452,5.852 0,0.8507 -0.059,1.5987 -0.176,2.244 h -17.072 c 0.117,1.5547 0.675,2.7427 1.672,3.564 1.027,0.792 2.185,1.188 3.476,1.188 1.027,0 2.009,-0.2493 2.948,-0.748 0.939,-0.4987 1.584,-1.1733 1.936,-2.024 l 5.984,1.672 c -0.909,1.8187 -2.332,3.3 -4.268,4.444 -1.907,1.144 -4.18,1.716 -6.82,1.716 z m -5.104,-14.124 h 10.032 c -0.147,-1.4667 -0.689,-2.6253 -1.628,-3.476 -0.909,-0.88 -2.039,-1.32 -3.388,-1.32 -1.349,0 -2.493,0.44 -3.432,1.32 -0.909,0.88 -1.437,2.0387 -1.584,3.476 z m 35.317,12.452 c -0.968,0.4107 -2.083,0.792 -3.344,1.144 -1.232,0.352 -2.479,0.528 -3.74,0.528 -1.173,0 -2.244,-0.1907 -3.212,-0.572 -0.968,-0.4107 -1.745,-1.0707 -2.332,-1.98 -0.587,-0.9093 -0.88,-2.112 -0.88,-3.608 V 14.184 h -2.948 V 8.86 h 2.948 V 1.512 h 7.04 V 8.86 h 4.708 v 5.324 h -4.708 v 9.636 c 0,0.7627 0.191,1.32 0.572,1.672 0.381,0.3227 0.865,0.484 1.452,0.484 0.528,0 1.071,-0.088 1.628,-0.264 0.557,-0.176 1.041,-0.3667 1.452,-0.572 z m 2.747,4.708 c 1.203,0.3813 2.215,0.572 3.036,0.572 0.822,0 1.467,-0.2933 1.936,-0.88 0.499,-0.5867 0.939,-1.6427 1.32,-3.168 l -8.8,-23.1 h 7.26 l 5.368,15.884 4.576,-15.884 h 6.644 l -8.8,26.84 c -0.616,1.9067 -1.73,3.4467 -3.344,4.62 -1.584,1.2027 -3.446,1.804 -5.588,1.804 -1.232,0 -2.434,-0.22 -3.608,-0.66 z"
     fill="#050505"
     id="path833" />
</svg>
