<svg width="274" height="44" viewBox="0 0 274 44" fill="none" xmlns="http://www.w3.org/2000/svg">
<path d="M0.316753 11.2949L0.621775 12.0927V21.9472V31.8018L0.316753 32.6465L0.0234632 33.5029H5.15018H10.2769L9.97187 32.7051C9.66684 31.9191 9.66684 31.9191 9.61992 27.7192L9.58472 23.531H12.8813H16.1779L16.1427 27.7192C16.0958 31.9191 16.0958 31.9191 15.7907 32.7051L15.4857 33.5029H20.6124H25.7391L25.4459 32.6465L25.1408 31.8018V22.0059V12.21L25.4459 11.3536L25.7391 10.5089H20.6007H15.4505L15.6382 10.8609C16.0723 11.7055 16.1662 12.5737 16.1662 16.1636V19.6596H12.8696H9.58472L9.61992 15.9289C9.65511 12.2921 9.66684 12.1865 9.96013 11.3536L10.2534 10.5089H5.12671H0L0.316753 11.2949Z" fill="#0B3861"/>
<path d="M99.7168 10.5912C100.21 11.5532 100.432 12.2101 100.526 13.0313C100.597 13.6179 100.632 17.3251 100.597 22.663C100.561 31.884 100.573 31.6025 99.9749 32.846C99.8224 33.1628 99.6934 33.4443 99.6934 33.4678C99.6934 33.4913 102.016 33.503 104.855 33.503C107.694 33.503 110.017 33.4795 110.017 33.4561C110.017 33.4326 109.841 33.0572 109.642 32.6114L109.255 31.8019L109.219 21.1496L109.184 10.509H104.433C101.817 10.509 99.6934 10.5442 99.7168 10.5912Z" fill="#0B3861"/>
<path d="M112.73 11.2716C113.27 12.4213 113.328 13.6648 113.281 23.1205C113.234 31.0276 113.223 31.3678 112.988 32.2125C112.847 32.6935 112.706 33.1862 112.659 33.2918C112.577 33.4913 112.871 33.503 117.704 33.503C122.538 33.503 122.831 33.4913 122.749 33.2918C122.221 32.0248 122.186 31.755 122.127 28.4936L122.08 25.3026L127.699 25.2557C132.357 25.2205 133.413 25.1853 133.917 25.0328C135.513 24.54 136.428 23.7423 136.885 22.3932C137.143 21.6541 137.167 21.3725 137.214 18.4865C137.261 15.0492 137.167 14.0403 136.686 12.9375C136.217 11.8816 135.372 11.2364 133.894 10.7906C133.248 10.5912 132.369 10.5794 122.784 10.5442L112.378 10.4973L112.73 11.2716ZM127.805 14.4626C128.309 14.7442 128.38 15.2134 128.38 17.9586C128.38 20.8798 128.321 21.1379 127.617 21.3842C127.347 21.4781 126.303 21.525 124.661 21.525L122.103 21.5368V17.8882V14.2397L124.837 14.2866C126.69 14.3101 127.641 14.3687 127.805 14.4626Z" fill="#0B3861"/>
<path d="M139.465 10.556C139.465 10.5794 139.629 10.9548 139.84 11.4006C140.356 12.5151 140.392 13.1369 140.392 22.006C140.392 30.6874 140.356 31.5203 139.829 32.6349C139.629 33.0689 139.465 33.4326 139.465 33.4561C139.465 33.4795 141.788 33.503 144.627 33.503C147.466 33.503 149.789 33.4795 149.789 33.4561C149.789 33.4326 149.613 33.0455 149.413 32.6114L149.026 31.8019L148.991 21.1496L148.967 10.509H144.216C141.6 10.509 139.465 10.5325 139.465 10.556Z" fill="#0B3861"/>
<path d="M59.279 13.1017C57.8008 13.1369 56.4634 13.1838 56.3226 13.1956C56.0528 13.2073 56.0528 13.2308 56.0528 14.9084V16.6095H54.2344H52.416V18.2519V19.8943H54.2344H56.0528V23.9065C56.0528 26.1238 56.1115 28.4349 56.1701 29.0567C56.3578 31.0276 56.9796 32.1421 58.2701 32.846C59.3963 33.4561 59.936 33.503 66.2124 33.503H71.9609L72.219 31.6025C72.3597 30.5584 72.4536 29.6902 72.4419 29.6668C72.4184 29.655 72.0665 29.7606 71.6559 29.9014C70.952 30.1243 70.6469 30.1478 68.0425 30.1595H65.18L64.9571 29.8779C64.7459 29.6198 64.7342 29.3617 64.7342 24.7512V19.8943H68.1364H71.5385V18.2519V16.6095H68.1364H64.7342V14.7911V12.9727L63.3616 12.9961C62.5991 13.0079 60.7689 13.0548 59.279 13.1017Z" fill="#0B3861"/>
<path d="M31.592 16.7386C31.2049 16.7972 30.5479 17.0084 30.1256 17.2195C29.4921 17.548 29.3044 17.7123 28.9876 18.2402C28.2837 19.4134 28.225 19.9647 28.272 25.4786C28.3189 29.9366 28.3424 30.4528 28.5418 30.9807C28.9993 32.2243 29.6094 32.8109 30.8412 33.2215C31.416 33.4209 32.1317 33.4444 39.3231 33.4796C44.5437 33.503 47.4532 33.4678 47.9928 33.3857C49.7643 33.1159 50.6793 32.3885 51.1486 30.8986C51.4067 30.0657 51.4184 29.9366 51.4184 25.0563C51.4184 20.2346 51.4067 20.0469 51.1603 19.2491C50.8553 18.2871 50.2805 17.548 49.5648 17.1726C48.5442 16.6564 47.7816 16.6212 39.8041 16.633C35.6746 16.633 31.9792 16.6799 31.592 16.7386ZM42.5845 20.2228C42.8544 20.4927 42.8544 20.4927 42.8896 24.8334C42.913 28.6579 42.9013 29.221 42.7253 29.5729C42.4438 30.1712 42.0566 30.2416 39.5343 30.1947L37.3757 30.1595L37.0941 29.831L36.8126 29.5025V25.0445C36.8126 22.1116 36.8595 20.5044 36.9416 20.3519C37.012 20.2228 37.1763 20.0703 37.317 20.0117C37.4578 19.953 38.6427 19.9178 39.9449 19.9296C42.2443 19.953 42.3264 19.9647 42.5845 20.2228Z" fill="#0B3861"/>
<path d="M77.4999 16.7268C75.3061 17.1022 74.4262 18.0877 74.1212 20.5044C74.0626 21.0323 74.0039 23.0853 74.0039 25.0562C74.0039 27.0271 74.0626 29.0802 74.1212 29.6081C74.4262 32.0365 75.3296 33.0455 77.4882 33.3739C78.0513 33.4561 81.3127 33.503 87.1902 33.503H96.0476L96.118 33.1158C96.6342 30.2885 96.728 29.5025 96.5403 29.5729C94.9331 30.1947 95.3906 30.1595 89.3137 30.1595C84.1166 30.1595 83.6473 30.1478 83.354 29.9483C82.7791 29.5729 82.6384 29.221 82.5914 28.0361L82.5445 26.9333H89.7712H96.9979V23.9065C96.9861 20.6569 96.8688 19.5424 96.4113 18.5687C96.0593 17.8296 95.3554 17.243 94.4169 16.9262C93.6661 16.6799 93.5605 16.6681 85.8528 16.6564C81.5591 16.6447 77.8049 16.6799 77.4999 16.7268ZM88.2813 20.2815C88.6098 20.5982 88.6098 20.6217 88.6098 22.0999V23.5898H85.6182H82.6266V22.0529C82.6266 20.434 82.6853 20.2228 83.2132 19.9999C83.3423 19.953 84.4685 19.9178 85.7003 19.9295L87.9645 19.953L88.2813 20.2815Z" fill="#0B3861"/>
<path d="M153.604 16.8676C153.522 17.243 153.076 20.1993 153.076 20.3988C153.076 20.5278 153.181 20.5278 153.697 20.3519C154.038 20.2345 154.659 20.082 155.082 20.0234C156.138 19.8474 165.359 19.8474 165.851 20.0234C166.485 20.2463 166.673 21.2083 166.168 21.701L165.898 21.9826L160.748 22.0295C155.797 22.0764 155.563 22.0881 154.8 22.3462C153.404 22.8038 152.7 23.6836 152.372 25.373C152.161 26.464 152.266 30.2181 152.536 30.969C153.005 32.2594 153.592 32.8226 154.906 33.2332C155.528 33.4209 156.091 33.4443 160.232 33.4443C165.159 33.4443 165.488 33.4091 166.074 32.8695C166.227 32.7404 166.461 32.412 166.602 32.1539L166.849 31.6846L166.954 32.1539C167.013 32.412 167.107 32.8226 167.165 33.0572L167.283 33.503H171.541H175.8L175.436 32.7756L175.072 32.0483L175.002 26.5227C174.92 20.5748 174.885 20.2111 174.251 18.9558C173.723 17.9234 173.008 17.3486 171.612 16.891C171.013 16.6916 170.321 16.6681 162.32 16.6329L153.674 16.5977L153.604 16.8676ZM166.391 27.3439C166.379 29.5612 166.321 29.7841 165.687 30.0539C165.206 30.2533 162.285 30.2885 161.616 30.1008C160.901 29.9014 160.819 29.6785 160.819 27.8484C160.819 26.8981 160.877 26.1238 160.948 25.9478C161.206 25.3964 161.663 25.3143 164.397 25.3378L166.391 25.3495V27.3439Z" fill="#0B3861"/>
<path d="M177.359 16.6564C177.359 16.6799 177.535 17.0553 177.747 17.5011L178.122 18.3106V24.9976V31.6846L177.793 32.4471C177.606 32.8695 177.43 33.2801 177.395 33.3505C177.348 33.4678 178.415 33.503 182.521 33.503C185.372 33.503 187.683 33.4678 187.66 33.4091C187.167 32.4471 186.944 31.8019 186.85 30.9924C186.698 29.655 186.709 21.2435 186.874 20.6803C187.073 19.953 187.413 19.8709 189.994 19.9178L192.165 19.953L192.446 20.2932L192.74 20.6217L192.704 26.159L192.669 31.6846L192.341 32.4471C192.153 32.8695 191.977 33.2801 191.942 33.3505C191.895 33.4678 192.962 33.503 197.068 33.503C199.919 33.503 202.23 33.4678 202.207 33.4091C201.351 31.7432 201.292 31.274 201.292 25.7601C201.292 20.9971 201.221 20.3988 200.576 19.1787C200.095 18.2871 199.145 17.4072 198.3 17.0905C197.209 16.6799 196.318 16.6095 192.259 16.6095C188.704 16.6095 188.282 16.6329 187.859 16.8324C187.39 17.0435 186.944 17.5245 186.604 18.1815L186.428 18.5217L186.358 18.2402C186.322 18.0877 186.252 17.6536 186.217 17.2782L186.135 16.6095H181.747C179.33 16.6095 177.359 16.6329 177.359 16.6564Z" fill="#0B3861"/>
<path d="M203.874 17.2782C204.062 17.6536 204.273 18.1932 204.332 18.4865C204.508 19.2374 204.496 30.7226 204.332 31.5321C204.262 31.8723 204.039 32.4589 203.863 32.8226L203.522 33.503H208.731H213.952L213.6 32.7522C213.4 32.3298 213.201 31.6611 213.142 31.2505C213.084 30.8399 213.025 28.3528 213.025 25.7249C213.025 20.2932 213.037 20.2463 213.811 20.0116C214.104 19.9178 214.996 19.8826 216.345 19.9178L218.445 19.953L218.727 20.2815L219.008 20.61V25.7484C219.008 28.5992 218.961 31.1567 218.891 31.4969C218.832 31.8254 218.621 32.412 218.433 32.7991L218.081 33.503H223.29H228.499L228.135 32.7404C227.936 32.3064 227.736 31.6259 227.678 31.1801C227.631 30.7461 227.572 28.4115 227.572 25.9948C227.572 21.1379 227.502 20.5278 226.868 19.2256C226.411 18.3106 225.461 17.419 224.581 17.0905C223.443 16.6681 222.516 16.5977 218.269 16.6329C213.647 16.6681 213.905 16.6095 213.154 17.7592C212.931 18.0877 212.708 18.334 212.661 18.3106C212.614 18.2754 212.544 17.8882 212.497 17.4307L212.415 16.6095H207.98H203.546L203.874 17.2782Z" fill="#0B3861"/>
<path d="M233.729 16.7384C232.709 16.8909 231.641 17.454 231.219 18.0523C230.456 19.1551 230.456 19.2372 230.409 24.5868C230.374 29.8074 230.421 30.5113 230.926 31.5906C231.313 32.3884 231.888 32.8576 232.908 33.1861C233.729 33.4442 233.753 33.4442 243.056 33.4442H252.383L252.699 31.5085C252.864 30.4409 253.005 29.5611 252.993 29.5493C252.981 29.5493 252.57 29.6784 252.089 29.8426L251.21 30.1594L245.825 30.1946C241.003 30.2298 240.381 30.218 239.912 30.0303C239.138 29.737 238.95 29.3499 238.95 28.0125V26.9332H246.106H253.263V23.7304C253.263 20.3635 253.157 19.4249 252.699 18.5333C252.183 17.5362 251.221 16.9378 249.79 16.7267C248.793 16.5859 234.727 16.5976 233.729 16.7384ZM244.347 20.0702C244.816 20.3165 244.957 20.8679 244.91 22.3578L244.875 23.5897L241.918 23.6249L238.95 23.6483V22.1232C238.95 20.516 239.032 20.1875 239.455 20.0115C239.595 19.9529 240.675 19.9059 241.859 19.9059C243.549 19.8942 244.077 19.9294 244.347 20.0702Z" fill="#0B3861"/>
<path d="M255.866 16.6916C256.359 17.6653 256.582 18.3106 256.676 19.1552C256.746 19.7418 256.781 22.3814 256.758 25.7836L256.711 31.45L256.394 32.2712C256.206 32.717 256.019 33.1393 255.96 33.198C255.89 33.2684 255.843 33.3622 255.843 33.4091C255.843 33.4561 258.189 33.503 261.052 33.503H266.272L265.991 32.9985C265.404 31.9662 265.345 31.4148 265.345 27.2266C265.345 24.9272 265.392 23.1792 265.463 22.9211C265.779 21.7948 266.554 21.4429 268.924 21.3373C270.695 21.2669 271.763 21.396 272.678 21.8183L273.323 22.1116V19.3547V16.586L270.484 16.6329C267.129 16.6916 266.683 16.7972 265.873 17.6067C265.592 17.8882 265.216 18.3927 265.04 18.7446L264.712 19.3664L264.63 18.9793C264.583 18.7681 264.512 18.1463 264.466 17.5949L264.383 16.6095H260.101C257.755 16.6095 255.843 16.6447 255.866 16.6916Z" fill="#0B3861"/>
</svg>
