<svg width="102" height="27" viewBox="0 0 102 27" fill="none" xmlns="http://www.w3.org/2000/svg">
<path d="M1.07181 19.3394H3.21981V11.1074C3.21981 10.1554 3.47581 9.39135 3.98781 8.81536C4.50781 8.23935 5.19181 7.95135 6.03981 7.95135C6.88781 7.95135 7.56781 8.23535 8.07981 8.80336C8.59181 9.37136 8.84781 10.1474 8.84781 11.1314L8.83581 19.3394H10.9598L10.9718 11.1074C10.9718 10.3794 11.1078 9.78336 11.3798 9.31936C11.6518 8.85535 12.0038 8.51135 12.4358 8.28735C12.8678 8.06335 13.3238 7.95135 13.8038 7.95135C14.6198 7.95135 15.2878 8.22735 15.8078 8.77935C16.3278 9.32335 16.5878 10.0794 16.5878 11.0474L16.5758 19.3394H18.7118L18.7238 10.5794C18.7238 9.19535 18.3358 8.09536 17.5598 7.27936C16.7838 6.45536 15.7198 6.04335 14.3678 6.04335C13.5118 6.04335 12.7398 6.23535 12.0518 6.61935C11.3638 6.99536 10.8278 7.51536 10.4438 8.17935C10.0918 7.49935 9.59181 6.97535 8.94381 6.60735C8.29581 6.23135 7.53581 6.04335 6.66381 6.04335C5.88781 6.04335 5.17981 6.19936 4.53981 6.51136C3.90781 6.81536 3.38781 7.23136 2.97981 7.75936V6.37935H1.07181V19.3394ZM27.2522 19.6994C28.5402 19.6994 29.6482 19.4114 30.5762 18.8354C31.5122 18.2594 32.2322 17.4554 32.7362 16.4234C33.2482 15.3914 33.5042 14.1994 33.5042 12.8474C33.5042 11.5114 33.2522 10.3314 32.7482 9.30736C32.2522 8.27536 31.5362 7.47135 30.6002 6.89535C29.6642 6.31136 28.5482 6.01936 27.2522 6.01936C25.9882 6.01936 24.8882 6.30735 23.9522 6.88335C23.0162 7.45135 22.2922 8.24735 21.7802 9.27135C21.2682 10.2954 21.0122 11.4874 21.0122 12.8474C21.0122 14.1834 21.2602 15.3674 21.7562 16.3994C22.2602 17.4314 22.9802 18.2394 23.9162 18.8234C24.8522 19.4074 25.9642 19.6994 27.2522 19.6994ZM27.2522 17.6714C25.9482 17.6714 24.9602 17.2354 24.2882 16.3634C23.6162 15.4834 23.2802 14.3114 23.2802 12.8474C23.2802 11.4314 23.6042 10.2794 24.2522 9.39135C24.9002 8.49535 25.9002 8.04735 27.2522 8.04735C28.5802 8.04735 29.5762 8.48336 30.2402 9.35536C30.9042 10.2274 31.2362 11.3914 31.2362 12.8474C31.2362 14.2714 30.9042 15.4314 30.2402 16.3274C29.5842 17.2234 28.5882 17.6714 27.2522 17.6714ZM36.1343 19.3394H38.0423V17.8754C38.5143 18.4434 39.0863 18.8914 39.7583 19.2194C40.4383 19.5394 41.2183 19.6994 42.0983 19.6994C43.3063 19.6994 44.3423 19.3994 45.2063 18.7994C46.0783 18.1914 46.7463 17.3714 47.2103 16.3394C47.6743 15.3074 47.9063 14.1434 47.9063 12.8474C47.9063 11.5514 47.6743 10.3874 47.2103 9.35536C46.7463 8.32336 46.0783 7.51135 45.2063 6.91935C44.3423 6.31936 43.3103 6.01936 42.1103 6.01936C41.3023 6.01936 40.5783 6.15535 39.9383 6.42735C39.2983 6.69935 38.7463 7.07535 38.2823 7.55535V2.05935H36.1343V19.3394ZM41.8343 17.7434C40.5303 17.7434 39.5703 17.2834 38.9543 16.3634C38.3463 15.4434 38.0423 14.2714 38.0423 12.8474C38.0423 11.4154 38.3463 10.2474 38.9543 9.34335C39.5703 8.43135 40.5103 7.97536 41.7743 7.97536C42.6543 7.97536 43.3783 8.19135 43.9463 8.62335C44.5223 9.05535 44.9463 9.63935 45.2183 10.3754C45.4983 11.1114 45.6383 11.9354 45.6383 12.8474C45.6383 13.7674 45.4983 14.5994 45.2183 15.3434C44.9383 16.0794 44.5183 16.6634 43.9583 17.0954C43.3983 17.5274 42.6903 17.7434 41.8343 17.7434ZM51.6104 25.0994H53.6864L60.7424 6.37935H58.5704L54.7784 16.5794L50.7344 6.37935H48.4904L53.7464 19.2914L51.6104 25.0994ZM70.9214 19.3394V17.5034C70.0334 17.6394 69.2734 17.6634 68.6414 17.5754C68.0174 17.4874 67.5614 17.1874 67.2734 16.6754C67.1214 16.4034 67.0374 16.0834 67.0214 15.7154C67.0134 15.3394 67.0094 14.8834 67.0094 14.3474V8.14336H70.9214V6.37935H67.0094V2.77935H64.8734V6.37935H62.2454V8.14336H64.8734V14.4434C64.8734 15.1154 64.8814 15.7154 64.8974 16.2434C64.9214 16.7634 65.0614 17.2754 65.3174 17.7794C65.6214 18.3634 66.0654 18.7954 66.6494 19.0754C67.2334 19.3474 67.8974 19.4954 68.6414 19.5194C69.3934 19.5514 70.1534 19.4914 70.9214 19.3394ZM73.5526 19.3394H75.7006V12.8354C75.7006 12.0674 75.8046 11.3274 76.0126 10.6154C76.2206 9.90335 76.6406 9.32335 77.2726 8.87536C77.7206 8.54735 78.2126 8.35536 78.7486 8.29936C79.2926 8.24336 79.7886 8.27135 80.2366 8.38335V6.37935C79.6606 6.25135 79.0286 6.25135 78.3406 6.37935C77.6526 6.50736 77.0606 6.77136 76.5646 7.17135C76.1326 7.47535 75.7646 7.89535 75.4606 8.43135V6.37935H73.5526V19.3394ZM82.7457 4.08736H84.8817V1.87935H82.7457V4.08736ZM82.7457 19.3394H84.8817V6.37935H82.7457V19.3394ZM88.4702 25.0994H90.6182V18.1394C91.0822 18.6274 91.6302 19.0114 92.2622 19.2914C92.9022 19.5634 93.6262 19.6994 94.4342 19.6994C95.6422 19.6994 96.6782 19.3994 97.5422 18.7994C98.4142 18.1914 99.0822 17.3714 99.5462 16.3394C100.01 15.3074 100.242 14.1434 100.242 12.8474C100.242 11.5514 100.01 10.3874 99.5462 9.35536C99.0822 8.32336 98.4142 7.51135 97.5422 6.91935C96.6782 6.31936 95.6462 6.01936 94.4462 6.01936C93.5662 6.01936 92.7862 6.17936 92.1062 6.49935C91.4262 6.81935 90.8502 7.26335 90.3782 7.83135V6.37935H88.4702V25.0994ZM94.1702 17.7434C92.8662 17.7434 91.9062 17.2834 91.2902 16.3634C90.6822 15.4434 90.3782 14.2714 90.3782 12.8474C90.3782 11.4154 90.6822 10.2474 91.2902 9.34335C91.9062 8.43135 92.8462 7.97536 94.1102 7.97536C94.9902 7.97536 95.7142 8.19135 96.2822 8.62335C96.8582 9.05535 97.2822 9.63935 97.5542 10.3754C97.8342 11.1114 97.9742 11.9354 97.9742 12.8474C97.9742 13.7674 97.8342 14.5994 97.5542 15.3434C97.2742 16.0794 96.8542 16.6634 96.2942 17.0954C95.7342 17.5274 95.0262 17.7434 94.1702 17.7434Z" fill="white"/>
<path d="M1.07181 19.3394H0.0718088V20.3394H1.07181V19.3394ZM3.21981 19.3394V20.3394H4.21981V19.3394H3.21981ZM3.98781 8.81536L3.24552 8.14523L3.2404 8.15099L3.98781 8.81536ZM8.07981 8.80336L7.33704 9.4729L7.33704 9.4729L8.07981 8.80336ZM8.84781 11.1314L9.84781 11.1328V11.1314H8.84781ZM8.83581 19.3394L7.83581 19.3379L7.83435 20.3394H8.83581V19.3394ZM10.9598 19.3394V20.3394H11.9584L11.9598 19.3408L10.9598 19.3394ZM10.9718 11.1074L11.9718 11.1088V11.1074H10.9718ZM11.3798 9.31936L10.5171 8.81364L10.5171 8.81364L11.3798 9.31936ZM15.8078 8.77935L15.0799 9.46507L15.0849 9.47034L15.8078 8.77935ZM16.5878 11.0474L17.5878 11.0488V11.0474H16.5878ZM16.5758 19.3394L15.5758 19.3379L15.5744 20.3394H16.5758V19.3394ZM18.7118 19.3394V20.3394H19.7104L19.7118 19.3407L18.7118 19.3394ZM18.7238 10.5794L19.7238 10.5807V10.5794H18.7238ZM17.5598 7.27936L16.8318 7.96495L16.8352 7.96848L17.5598 7.27936ZM12.0518 6.61935L12.5314 7.49689L12.5392 7.49255L12.0518 6.61935ZM10.4438 8.17935L9.55574 8.63906L10.3952 10.2608L11.3095 8.67998L10.4438 8.17935ZM8.94381 6.60735L8.44191 7.47233L8.44998 7.47692L8.94381 6.60735ZM4.53981 6.51136L4.97329 7.41253L4.97801 7.41023L4.53981 6.51136ZM2.97981 7.75936H1.97981V10.6889L3.77109 8.3708L2.97981 7.75936ZM2.97981 6.37935H3.97981V5.37935H2.97981V6.37935ZM1.07181 6.37935V5.37935H0.0718088V6.37935H1.07181ZM1.07181 20.3394H3.21981V18.3394H1.07181V20.3394ZM4.21981 19.3394V11.1074H2.21981V19.3394H4.21981ZM4.21981 11.1074C4.21981 10.3402 4.42183 9.83228 4.73522 9.47972L3.2404 8.15099C2.52978 8.95043 2.21981 9.97049 2.21981 11.1074H4.21981ZM4.73008 9.48546C5.04163 9.14035 5.44538 8.95135 6.03981 8.95135V6.95135C4.93824 6.95135 3.97398 7.33836 3.24554 8.14525L4.73008 9.48546ZM6.03981 8.95135C6.63899 8.95135 7.03653 9.13952 7.33704 9.4729L8.82258 8.13381C8.09909 7.33119 7.13663 6.95135 6.03981 6.95135V8.95135ZM7.33704 9.4729C7.64031 9.80935 7.84781 10.3216 7.84781 11.1314H9.84781C9.84781 9.97309 9.54331 8.93336 8.82258 8.13381L7.33704 9.4729ZM7.84781 11.1299L7.83581 19.3379L9.83581 19.3408L9.84781 11.1328L7.84781 11.1299ZM8.83581 20.3394H10.9598V18.3394H8.83581V20.3394ZM11.9598 19.3408L11.9718 11.1088L9.97181 11.1059L9.95981 19.3379L11.9598 19.3408ZM11.9718 11.1074C11.9718 10.4966 12.0867 10.0908 12.2425 9.82507L10.5171 8.81364C10.1289 9.47593 9.97181 10.2621 9.97181 11.1074H11.9718ZM12.2425 9.82507C12.4295 9.50611 12.6489 9.30328 12.8961 9.17511L11.9755 7.3996C11.3587 7.71943 10.8741 8.2046 10.5171 8.81364L12.2425 9.82507ZM12.8961 9.17511C13.1879 9.0238 13.4863 8.95135 13.8038 8.95135V6.95135C13.1613 6.95135 12.5477 7.10291 11.9755 7.3996L12.8961 9.17511ZM13.8038 8.95135C14.3676 8.95135 14.7643 9.13004 15.0799 9.46505L16.5357 8.09366C15.8113 7.32467 14.872 6.95135 13.8038 6.95135V8.95135ZM15.0849 9.47034C15.3804 9.77943 15.5878 10.2602 15.5878 11.0474H17.5878C17.5878 9.89851 17.2752 8.86728 16.5307 8.08837L15.0849 9.47034ZM15.5878 11.0459L15.5758 19.3379L17.5758 19.3408L17.5878 11.0488L15.5878 11.0459ZM16.5758 20.3394H18.7118V18.3394H16.5758V20.3394ZM19.7118 19.3407L19.7238 10.5807L17.7238 10.578L17.7118 19.338L19.7118 19.3407ZM19.7238 10.5794C19.7238 9.00076 19.2757 7.63261 18.2845 6.59023L16.8352 7.96848C17.3959 8.5581 17.7238 9.38995 17.7238 10.5794H19.7238ZM18.2878 6.59377C17.2864 5.53047 15.9374 5.04335 14.3678 5.04335V7.04335C15.5022 7.04335 16.2812 7.38024 16.8318 7.96494L18.2878 6.59377ZM14.3678 5.04335C13.3564 5.04335 12.4141 5.27192 11.5644 5.74616L12.5392 7.49255C13.0655 7.19879 13.6673 7.04335 14.3678 7.04335V5.04335ZM11.5722 5.74185C10.7272 6.20368 10.056 6.85244 9.57814 7.67873L11.3095 8.67998C11.5996 8.17827 12.0004 7.78703 12.5314 7.49686L11.5722 5.74185ZM11.3319 7.71965C10.8935 6.87276 10.2588 6.20412 9.43763 5.73779L8.44998 7.47692C8.92484 7.74659 9.29013 8.12595 9.55574 8.63906L11.3319 7.71965ZM9.44569 5.74242C8.6218 5.26436 7.68287 5.04335 6.66381 5.04335V7.04335C7.38875 7.04335 7.96982 7.19835 8.44193 7.47229L9.44569 5.74242ZM6.66381 5.04335C5.74983 5.04335 4.89005 5.22811 4.10161 5.61248L4.97801 7.41023C5.46957 7.1706 6.02579 7.04335 6.66381 7.04335V5.04335ZM4.10634 5.61019C3.34151 5.97808 2.69651 6.49052 2.18852 7.14791L3.77109 8.3708C4.07911 7.97219 4.47411 7.65263 4.97328 7.41252L4.10634 5.61019ZM3.97981 7.75936V6.37935H1.97981V7.75936H3.97981ZM2.97981 5.37935H1.07181V7.37935H2.97981V5.37935ZM0.0718088 6.37935V19.3394H2.07181V6.37935H0.0718088ZM30.5762 18.8354L30.0521 17.9837L30.0489 17.9857L30.5762 18.8354ZM32.7362 16.4234L31.8404 15.9789L31.8377 15.9845L32.7362 16.4234ZM32.7482 9.30736L31.8469 9.74056L31.851 9.74895L32.7482 9.30736ZM30.6002 6.89535L30.0709 7.74378L30.0761 7.74701L30.6002 6.89535ZM23.9522 6.88335L24.471 7.73827L24.4763 7.73501L23.9522 6.88335ZM21.7802 9.27135L22.6747 9.71857L22.6747 9.71857L21.7802 9.27135ZM21.7562 16.3994L20.8549 16.8325L20.8577 16.8382L21.7562 16.3994ZM23.9162 18.8234L24.4456 17.975L24.4456 17.975L23.9162 18.8234ZM24.2882 16.3634L23.4935 16.9703L23.4962 16.9738L24.2882 16.3634ZM24.2522 9.39135L25.06 9.98083L25.0625 9.97737L24.2522 9.39135ZM30.2402 9.35536L29.4446 9.96118L29.4446 9.96118L30.2402 9.35536ZM30.2402 16.3274L29.4368 15.7319L29.4334 15.7366L30.2402 16.3274ZM27.2522 20.6994C28.6928 20.6994 29.9908 20.3757 31.1036 19.685L30.0489 17.9857C29.3057 18.447 28.3877 18.6994 27.2522 18.6994V20.6994ZM31.1003 19.687C32.2052 19.0071 33.0516 18.0565 33.6348 16.8622L31.8377 15.9845C31.4129 16.8543 30.8193 17.5116 30.0521 17.9837L31.1003 19.687ZM33.6321 16.8678C34.2235 15.6756 34.5042 14.3269 34.5042 12.8474H32.5042C32.5042 14.0718 32.273 15.1071 31.8404 15.9789L33.6321 16.8678ZM34.5042 12.8474C34.5042 11.3842 34.2277 10.0487 33.6455 8.86576L31.851 9.74895C32.2768 10.614 32.5042 11.6385 32.5042 12.8474H34.5042ZM33.6496 8.87417C33.0742 7.67702 32.2306 6.72449 31.1243 6.0437L30.0761 7.74701C30.8419 8.21822 31.4303 8.87369 31.8469 9.74054L33.6496 8.87417ZM31.1296 6.04695C30.0088 5.34767 28.7022 5.01936 27.2522 5.01936V7.01936C28.3943 7.01936 29.3197 7.27504 30.0709 7.74376L31.1296 6.04695ZM27.2522 5.01936C25.8315 5.01936 24.5443 5.34486 23.4281 6.0317L24.4763 7.73501C25.2322 7.26985 26.145 7.01936 27.2522 7.01936V5.01936ZM23.4335 6.02845C22.3288 6.69882 21.4781 7.63964 20.8858 8.82414L22.6747 9.71857C23.1064 8.85507 23.7037 8.20389 24.471 7.73826L23.4335 6.02845ZM20.8858 8.82414C20.2925 10.0108 20.0122 11.3611 20.0122 12.8474H22.0122C22.0122 11.6136 22.244 10.5799 22.6747 9.71857L20.8858 8.82414ZM20.0122 12.8474C20.0122 14.3084 20.284 15.6446 20.8549 16.8325L22.6576 15.9662C22.2365 15.0901 22.0122 14.0583 22.0122 12.8474H20.0122ZM20.8577 16.8382C21.4404 18.0314 22.2852 18.9843 23.3869 19.6718L24.4456 17.975C23.6753 17.4944 23.0801 16.8313 22.6548 15.9605L20.8577 16.8382ZM23.3869 19.6718C24.5067 20.3704 25.809 20.6994 27.2522 20.6994V18.6994C26.1195 18.6994 25.1978 18.4443 24.4456 17.975L23.3869 19.6718ZM27.2522 16.6714C26.1941 16.6714 25.527 16.3325 25.0803 15.7529L23.4962 16.9738C24.3935 18.1382 25.7024 18.6714 27.2522 18.6714V16.6714ZM25.083 15.7564C24.5814 15.0996 24.2802 14.1626 24.2802 12.8474H22.2802C22.2802 14.4602 22.6511 15.8672 23.4935 16.9703L25.083 15.7564ZM24.2802 12.8474C24.2802 11.5821 24.5687 10.6541 25.06 9.98082L23.4445 8.80189C22.6398 9.9046 22.2802 11.2806 22.2802 12.8474H24.2802ZM25.0625 9.97737C25.4799 9.40029 26.1408 9.04735 27.2522 9.04735V7.04735C25.6597 7.04735 24.3206 7.59042 23.4419 8.80534L25.0625 9.97737ZM27.2522 9.04735C28.3419 9.04735 29.0104 9.39094 29.4446 9.96118L31.0358 8.74953C30.1421 7.57577 28.8186 7.04735 27.2522 7.04735V9.04735ZM29.4446 9.96118C29.9384 10.6096 30.2362 11.5386 30.2362 12.8474H32.2362C32.2362 11.2441 31.8701 9.84513 31.0358 8.74953L29.4446 9.96118ZM30.2362 12.8474C30.2362 14.1167 29.9417 15.0507 29.4368 15.732L31.0437 16.9228C31.8668 15.812 32.2362 14.426 32.2362 12.8474H30.2362ZM29.4334 15.7366C29.0051 16.3216 28.3425 16.6714 27.2522 16.6714V18.6714C28.834 18.6714 30.1634 18.1251 31.0471 16.9181L29.4334 15.7366ZM36.1343 19.3394H35.1343V20.3394H36.1343V19.3394ZM38.0423 19.3394V20.3394H39.0423V19.3394H38.0423ZM38.0423 17.8754L38.8114 17.2362L37.0423 15.1073V17.8754H38.0423ZM39.7583 19.2194L39.3197 20.118L39.3261 20.1211L39.3325 20.1242L39.7583 19.2194ZM45.2063 18.7994L45.7767 19.6207L45.7783 19.6196L45.2063 18.7994ZM47.2103 16.3394L48.1224 16.7494L48.1224 16.7494L47.2103 16.3394ZM45.2063 6.91935L44.6359 7.74077L44.6446 7.7467L45.2063 6.91935ZM39.9383 6.42735L39.5472 5.50702L39.5472 5.50702L39.9383 6.42735ZM38.2823 7.55535H37.2823V10.0286L39.0013 8.25038L38.2823 7.55535ZM38.2823 2.05935H39.2823V1.05935H38.2823V2.05935ZM36.1343 2.05935V1.05935H35.1343V2.05935H36.1343ZM38.9543 16.3634L38.12 16.9147L38.1234 16.9197L38.9543 16.3634ZM38.9543 9.34335L38.1256 8.78363L38.1245 8.78527L38.9543 9.34335ZM43.9463 8.62335L43.3409 9.41932L43.3463 9.42335L43.9463 8.62335ZM45.2183 10.3754L44.2803 10.722L44.2837 10.7309L45.2183 10.3754ZM45.2183 15.3434L46.153 15.6989L46.1542 15.6956L45.2183 15.3434ZM43.9583 17.0954L43.3475 16.3036L43.3475 16.3036L43.9583 17.0954ZM36.1343 20.3394H38.0423V18.3394H36.1343V20.3394ZM39.0423 19.3394V17.8754H37.0423V19.3394H39.0423ZM37.2732 18.5145C37.8369 19.1928 38.522 19.7287 39.3197 20.118L40.1969 18.3207C39.6506 18.054 39.1917 17.6939 38.8114 17.2362L37.2732 18.5145ZM39.3325 20.1242C40.1666 20.5167 41.0961 20.6994 42.0983 20.6994V18.6994C41.3405 18.6994 40.71 18.562 40.1841 18.3145L39.3325 20.1242ZM42.0983 20.6994C43.4789 20.6994 44.7213 20.3537 45.7767 19.6207L44.6359 17.978C43.9633 18.445 43.1337 18.6994 42.0983 18.6994V20.6994ZM45.7783 19.6196C46.8083 18.9015 47.5892 17.9354 48.1224 16.7494L46.2983 15.9293C45.9035 16.8074 45.3483 17.4812 44.6344 17.9791L45.7783 19.6196ZM48.1224 16.7494C48.6522 15.571 48.9063 14.2642 48.9063 12.8474H46.9063C46.9063 14.0225 46.6964 15.0437 46.2983 15.9293L48.1224 16.7494ZM48.9063 12.8474C48.9063 11.4305 48.6522 10.1237 48.1224 8.94528L46.2983 9.76543C46.6964 10.651 46.9063 11.6722 46.9063 12.8474H48.9063ZM48.1224 8.94528C47.5883 7.75736 46.8045 6.79567 45.768 6.092L44.6446 7.7467C45.3521 8.22704 45.9044 8.88935 46.2983 9.76543L48.1224 8.94528ZM45.7767 6.09798C44.7224 5.36581 43.4845 5.01936 42.1103 5.01936V7.01936C43.1361 7.01936 43.9622 7.2729 44.6359 7.74072L45.7767 6.09798ZM42.1103 5.01936C41.1894 5.01936 40.3293 5.17464 39.5472 5.50702L40.3294 7.34769C40.8274 7.13607 41.4152 7.01936 42.1103 7.01936V5.01936ZM39.5472 5.50702C38.7891 5.82919 38.1243 6.28002 37.5633 6.86033L39.0013 8.25038C39.3683 7.87069 39.8075 7.56952 40.3294 7.34769L39.5472 5.50702ZM39.2823 7.55535V2.05935H37.2823V7.55535H39.2823ZM38.2823 1.05935H36.1343V3.05935H38.2823V1.05935ZM35.1343 2.05935V19.3394H37.1343V2.05935H35.1343ZM41.8343 16.7434C40.7955 16.7434 40.1805 16.3973 39.7852 15.807L38.1234 16.9197C38.9601 18.1694 40.2652 18.7434 41.8343 18.7434V16.7434ZM39.7886 15.812C39.3161 15.0971 39.0423 14.1318 39.0423 12.8474H37.0423C37.0423 14.4109 37.3765 15.7896 38.12 16.9147L39.7886 15.812ZM39.0423 12.8474C39.0423 11.5525 39.3171 10.5958 39.7841 9.90144L38.1245 8.78527C37.3755 9.89888 37.0423 11.2782 37.0423 12.8474H39.0423ZM39.783 9.90308C40.1831 9.31071 40.7852 8.97536 41.7743 8.97536V6.97536C40.2354 6.97536 38.9575 7.552 38.1256 8.78363L39.783 9.90308ZM41.7743 8.97536C42.4877 8.97536 42.9843 9.14807 43.3409 9.4193L44.5517 7.82741C43.7723 7.23464 42.8209 6.97536 41.7743 6.97536V8.97536ZM43.3463 9.42335C43.7546 9.72957 44.0688 10.1496 44.2803 10.722L46.1563 10.0287C45.8238 9.12909 45.29 8.38114 44.5463 7.82335L43.3463 9.42335ZM44.2837 10.7309C44.5142 11.3369 44.6383 12.0379 44.6383 12.8474H46.6383C46.6383 11.8328 46.4824 10.8858 46.153 10.0198L44.2837 10.7309ZM44.6383 12.8474C44.6383 13.6657 44.5139 14.3759 44.2824 14.9911L46.1542 15.6956C46.4827 14.8228 46.6383 13.869 46.6383 12.8474H44.6383ZM44.2837 14.9878C44.0616 15.5714 43.7452 15.9968 43.3475 16.3036L44.5691 17.8871C45.2914 17.3299 45.815 16.5873 46.153 15.6989L44.2837 14.9878ZM43.3475 16.3036C42.9969 16.574 42.5171 16.7434 41.8343 16.7434V18.7434C42.8635 18.7434 43.7997 18.4807 44.5691 17.8871L43.3475 16.3036ZM51.6104 25.0994L50.6718 24.7542L50.1771 26.0994H51.6104V25.0994ZM53.6864 25.0994V26.0994H54.3781L54.6221 25.4521L53.6864 25.0994ZM60.7424 6.37935L61.6781 6.73206L62.188 5.37935H60.7424V6.37935ZM58.5704 6.37935V5.37935H57.8753L57.633 6.03089L58.5704 6.37935ZM54.7784 16.5794L53.8488 16.9479L54.8084 19.3683L55.7157 16.9278L54.7784 16.5794ZM50.7344 6.37935L51.664 6.01079L51.4136 5.37935H50.7344V6.37935ZM48.4904 6.37935V5.37935H47.0036L47.5642 6.75638L48.4904 6.37935ZM53.7464 19.2914L54.6849 19.6365L54.8186 19.273L54.6726 18.9143L53.7464 19.2914ZM51.6104 26.0994H53.6864V24.0994H51.6104V26.0994ZM54.6221 25.4521L61.6781 6.73206L59.8066 6.02665L52.7506 24.7467L54.6221 25.4521ZM60.7424 5.37935H58.5704V7.37935H60.7424V5.37935ZM57.633 6.03089L53.841 16.2309L55.7157 16.9278L59.5077 6.72782L57.633 6.03089ZM55.708 16.2108L51.664 6.01079L49.8048 6.74792L53.8488 16.9479L55.708 16.2108ZM50.7344 5.37935H48.4904V7.37935H50.7344V5.37935ZM47.5642 6.75638L52.8202 19.6684L54.6726 18.9143L49.4166 6.00233L47.5642 6.75638ZM52.8078 18.9462L50.6718 24.7542L52.5489 25.4445L54.6849 19.6365L52.8078 18.9462ZM70.9214 19.3394L71.1155 20.3203L71.9214 20.1608V19.3394H70.9214ZM70.9214 17.5034H71.9214V16.3385L70.77 16.5149L70.9214 17.5034ZM68.6414 17.5754L68.5017 18.5656L68.5035 18.5658L68.6414 17.5754ZM67.2734 16.6754L66.4004 17.1632L66.4018 17.1656L67.2734 16.6754ZM67.0214 15.7154L66.0216 15.7366L66.0218 15.7477L66.0223 15.7588L67.0214 15.7154ZM67.0094 8.14336V7.14336H66.0094V8.14336H67.0094ZM70.9214 8.14336V9.14336H71.9214V8.14336H70.9214ZM70.9214 6.37935H71.9214V5.37935H70.9214V6.37935ZM67.0094 6.37935H66.0094V7.37935H67.0094V6.37935ZM67.0094 2.77935H68.0094V1.77935H67.0094V2.77935ZM64.8734 2.77935V1.77935H63.8734V2.77935H64.8734ZM64.8734 6.37935V7.37935H65.8734V6.37935H64.8734ZM62.2454 6.37935V5.37935H61.2454V6.37935H62.2454ZM62.2454 8.14336H61.2454V9.14336H62.2454V8.14336ZM64.8734 8.14336H65.8734V7.14336H64.8734V8.14336ZM64.8974 16.2434L63.8978 16.2736L63.8981 16.2816L63.8984 16.2895L64.8974 16.2434ZM65.3174 17.7794L64.4257 18.2322L64.4304 18.2411L65.3174 17.7794ZM66.6494 19.0754L66.217 19.9771L66.2272 19.9819L66.6494 19.0754ZM68.6414 19.5194L68.6839 18.5202L68.6736 18.5199L68.6414 19.5194ZM71.9214 19.3394V17.5034H69.9214V19.3394H71.9214ZM70.77 16.5149C69.942 16.6417 69.285 16.6553 68.7793 16.5849L68.5035 18.5658C69.2617 18.6714 70.1247 18.637 71.0728 18.4918L70.77 16.5149ZM68.781 16.5852C68.4396 16.537 68.2678 16.4034 68.1449 16.1851L66.4018 17.1656C66.855 17.9713 67.5952 18.4377 68.5017 18.5656L68.781 16.5852ZM68.1463 16.1875C68.0831 16.0745 68.0309 15.9122 68.0204 15.6719L66.0223 15.7588C66.0439 16.2545 66.1596 16.7322 66.4004 17.1632L68.1463 16.1875ZM68.0211 15.6941C68.0133 15.3274 68.0094 14.879 68.0094 14.3474H66.0094C66.0094 14.8877 66.0134 15.3513 66.0216 15.7366L68.0211 15.6941ZM68.0094 14.3474V8.14336H66.0094V14.3474H68.0094ZM67.0094 9.14336H70.9214V7.14336H67.0094V9.14336ZM71.9214 8.14336V6.37935H69.9214V8.14336H71.9214ZM70.9214 5.37935H67.0094V7.37935H70.9214V5.37935ZM68.0094 6.37935V2.77935H66.0094V6.37935H68.0094ZM67.0094 1.77935H64.8734V3.77935H67.0094V1.77935ZM63.8734 2.77935V6.37935H65.8734V2.77935H63.8734ZM64.8734 5.37935H62.2454V7.37935H64.8734V5.37935ZM61.2454 6.37935V8.14336H63.2454V6.37935H61.2454ZM62.2454 9.14336H64.8734V7.14336H62.2454V9.14336ZM63.8734 8.14336V14.4434H65.8734V8.14336H63.8734ZM63.8734 14.4434C63.8734 15.1229 63.8815 15.7333 63.8978 16.2736L65.8969 16.2131C65.8813 15.6974 65.8734 15.1078 65.8734 14.4434H63.8734ZM63.8984 16.2895C63.9295 16.963 64.1112 17.6128 64.4258 18.2322L66.209 17.3265C66.0116 16.9379 65.9132 16.5638 65.8963 16.1973L63.8984 16.2895ZM64.4304 18.2411C64.8325 19.0137 65.4344 19.6018 66.217 19.9771L67.0817 18.1736C66.6963 17.9889 66.4102 17.713 66.2044 17.3176L64.4304 18.2411ZM66.2272 19.9819C66.9511 20.319 67.751 20.4912 68.6091 20.5188L68.6736 18.5199C68.0438 18.4996 67.5157 18.3757 67.0716 18.1689L66.2272 19.9819ZM68.5989 20.5185C69.4333 20.554 70.2728 20.4871 71.1155 20.3203L70.7272 18.3584C70.034 18.4956 69.3534 18.5488 68.6839 18.5203L68.5989 20.5185ZM73.5526 19.3394H72.5526V20.3394H73.5526V19.3394ZM75.7006 19.3394V20.3394H76.7006V19.3394H75.7006ZM76.0126 10.6154L76.9724 10.8958L76.9724 10.8958L76.0126 10.6154ZM77.2726 8.87536L77.8509 9.69118L77.8571 9.68674L77.8633 9.68222L77.2726 8.87536ZM78.7486 8.29936L78.6462 7.30461L78.6446 7.30477L78.7486 8.29936ZM80.2366 8.38335L79.994 9.3535L81.2366 9.66413V8.38335H80.2366ZM80.2366 6.37935H81.2366V5.57718L80.4535 5.40317L80.2366 6.37935ZM78.3406 6.37935L78.5235 7.36248L78.5235 7.36248L78.3406 6.37935ZM76.5646 7.17135L77.1401 7.98916L77.1668 7.97032L77.1923 7.94977L76.5646 7.17135ZM75.4606 8.43135H74.4606V12.2215L76.3304 8.92469L75.4606 8.43135ZM75.4606 6.37935H76.4606V5.37935H75.4606V6.37935ZM73.5526 6.37935V5.37935H72.5526V6.37935H73.5526ZM73.5526 20.3394H75.7006V18.3394H73.5526V20.3394ZM76.7006 19.3394V12.8354H74.7006V19.3394H76.7006ZM76.7006 12.8354C76.7006 12.1589 76.792 11.5135 76.9724 10.8958L75.0527 10.3349C74.8171 11.1412 74.7006 11.9758 74.7006 12.8354H76.7006ZM76.9724 10.8958C77.1143 10.4103 77.394 10.0151 77.8509 9.69118L76.6943 8.05953C75.8872 8.63166 75.3268 9.39644 75.0527 10.3349L76.9724 10.8958ZM77.8633 9.68222C78.173 9.45546 78.498 9.33098 78.8525 9.29394L78.6446 7.30477C77.9271 7.37973 77.2681 7.63925 76.6818 8.06849L77.8633 9.68222ZM78.851 9.2941C79.3002 9.24785 79.6773 9.27432 79.994 9.3535L80.4791 7.41321C79.8998 7.26839 79.2849 7.23886 78.6462 7.30461L78.851 9.2941ZM81.2366 8.38335V6.37935H79.2366V8.38335H81.2366ZM80.4535 5.40317C79.724 5.24105 78.9538 5.2481 78.1577 5.39622L78.5235 7.36248C79.1033 7.25461 79.5972 7.26166 80.0196 7.35554L80.4535 5.40317ZM78.1577 5.39622C77.3231 5.5515 76.5742 5.87892 75.9368 6.39294L77.1923 7.94977C77.5469 7.66379 77.9821 7.46321 78.5235 7.36248L78.1577 5.39622ZM75.9891 6.35355C75.4176 6.75567 74.9556 7.29473 74.5907 7.93802L76.3304 8.92469C76.5735 8.49598 76.8475 8.19504 77.1401 7.98916L75.9891 6.35355ZM76.4606 8.43135V6.37935H74.4606V8.43135H76.4606ZM75.4606 5.37935H73.5526V7.37935H75.4606V5.37935ZM72.5526 6.37935V19.3394H74.5526V6.37935H72.5526ZM82.7457 4.08736H81.7457V5.08736H82.7457V4.08736ZM84.8817 4.08736V5.08736H85.8817V4.08736H84.8817ZM84.8817 1.87935H85.8817V0.879355H84.8817V1.87935ZM82.7457 1.87935V0.879355H81.7457V1.87935H82.7457ZM82.7457 19.3394H81.7457V20.3394H82.7457V19.3394ZM84.8817 19.3394V20.3394H85.8817V19.3394H84.8817ZM84.8817 6.37935H85.8817V5.37935H84.8817V6.37935ZM82.7457 6.37935V5.37935H81.7457V6.37935H82.7457ZM82.7457 5.08736H84.8817V3.08736H82.7457V5.08736ZM85.8817 4.08736V1.87935H83.8817V4.08736H85.8817ZM84.8817 0.879355H82.7457V2.87935H84.8817V0.879355ZM81.7457 1.87935V4.08736H83.7457V1.87935H81.7457ZM82.7457 20.3394H84.8817V18.3394H82.7457V20.3394ZM85.8817 19.3394V6.37935H83.8817V19.3394H85.8817ZM84.8817 5.37935H82.7457V7.37935H84.8817V5.37935ZM81.7457 6.37935V19.3394H83.7457V6.37935H81.7457ZM88.4702 25.0994H87.4702V26.0994H88.4702V25.0994ZM90.6182 25.0994V26.0994H91.6182V25.0994H90.6182ZM90.6182 18.1394L91.3429 17.4503L89.6182 15.6364V18.1394H90.6182ZM92.2622 19.2914L91.8572 20.2056L91.8641 20.2087L91.8711 20.2117L92.2622 19.2914ZM97.5422 18.7994L98.1126 19.6207L98.1142 19.6196L97.5422 18.7994ZM99.5462 16.3394L100.458 16.7494L100.458 16.7494L99.5462 16.3394ZM97.5422 6.91935L96.9718 7.74077L96.9806 7.7467L97.5422 6.91935ZM92.1062 6.49935L92.532 7.40417L92.532 7.40417L92.1062 6.49935ZM90.3782 7.83135H89.3782V10.5994L91.1474 8.47047L90.3782 7.83135ZM90.3782 6.37935H91.3782V5.37935H90.3782V6.37935ZM88.4702 6.37935V5.37935H87.4702V6.37935H88.4702ZM91.2902 16.3634L90.456 16.9147L90.4593 16.9197L91.2902 16.3634ZM91.2902 9.34335L90.4616 8.78363L90.4605 8.78527L91.2902 9.34335ZM96.2822 8.62335L95.6769 9.41932L95.6822 9.42335L96.2822 8.62335ZM97.5542 10.3754L96.6162 10.722L96.6196 10.7309L97.5542 10.3754ZM97.5542 15.3434L98.4889 15.6989L98.4902 15.6956L97.5542 15.3434ZM96.2942 17.0954L95.6834 16.3036L95.6834 16.3036L96.2942 17.0954ZM88.4702 26.0994H90.6182V24.0994H88.4702V26.0994ZM91.6182 25.0994V18.1394H89.6182V25.0994H91.6182ZM89.8935 18.8284C90.4507 19.4143 91.1081 19.8738 91.8572 20.2056L92.6673 18.3771C92.1524 18.1489 91.7138 17.8404 91.3429 17.4503L89.8935 18.8284ZM91.8711 20.2117C92.6532 20.5441 93.5134 20.6994 94.4342 20.6994V18.6994C93.7391 18.6994 93.1513 18.5826 92.6534 18.371L91.8711 20.2117ZM94.4342 20.6994C95.8149 20.6994 97.0572 20.3537 98.1126 19.6207L96.9719 17.978C96.2993 18.445 95.4696 18.6994 94.4342 18.6994V20.6994ZM98.1142 19.6196C99.1442 18.9015 99.9251 17.9354 100.458 16.7494L98.6342 15.9293C98.2394 16.8074 97.6843 17.4812 96.9703 17.9791L98.1142 19.6196ZM100.458 16.7494C100.988 15.571 101.242 14.2642 101.242 12.8474H99.2422C99.2422 14.0225 99.0324 15.0437 98.6342 15.9293L100.458 16.7494ZM101.242 12.8474C101.242 11.4305 100.988 10.1237 100.458 8.94528L98.6342 9.76543C99.0324 10.651 99.2422 11.6722 99.2422 12.8474H101.242ZM100.458 8.94528C99.9242 7.75736 99.1404 6.79567 98.1039 6.092L96.9806 7.7467C97.6881 8.22704 98.2403 8.88935 98.6342 9.76543L100.458 8.94528ZM98.1126 6.09798C97.0583 5.36581 95.8204 5.01936 94.4462 5.01936V7.01936C95.4721 7.01936 96.2982 7.2729 96.9719 7.74072L98.1126 6.09798ZM94.4462 5.01936C93.444 5.01936 92.5145 5.20202 91.6804 5.59454L92.532 7.40417C93.0579 7.15669 93.6885 7.01936 94.4462 7.01936V5.01936ZM91.6804 5.59454C90.8703 5.97576 90.1764 6.50957 89.6091 7.19224L91.1474 8.47047C91.5241 8.01714 91.9821 7.66295 92.532 7.40417L91.6804 5.59454ZM91.3782 7.83135V6.37935H89.3782V7.83135H91.3782ZM90.3782 5.37935H88.4702V7.37935H90.3782V5.37935ZM87.4702 6.37935V25.0994H89.4702V6.37935H87.4702ZM94.1702 16.7434C93.1314 16.7434 92.5164 16.3973 92.1212 15.807L90.4593 16.9197C91.2961 18.1694 92.6011 18.7434 94.1702 18.7434V16.7434ZM92.1245 15.812C91.6521 15.0971 91.3782 14.1318 91.3782 12.8474H89.3782C89.3782 14.4109 89.7124 15.7896 90.456 16.9147L92.1245 15.812ZM91.3782 12.8474C91.3782 11.5525 91.653 10.5958 92.12 9.90144L90.4605 8.78527C89.7115 9.89888 89.3782 11.2782 89.3782 12.8474H91.3782ZM92.1189 9.90308C92.519 9.31071 93.1211 8.97536 94.1102 8.97536V6.97536C92.5714 6.97536 91.2935 7.552 90.4616 8.78363L92.1189 9.90308ZM94.1102 8.97536C94.8236 8.97536 95.3203 9.14807 95.6769 9.4193L96.8876 7.82741C96.1082 7.23464 95.1568 6.97536 94.1102 6.97536V8.97536ZM95.6822 9.42335C96.0905 9.72957 96.4047 10.1496 96.6163 10.722L98.4922 10.0287C98.1598 9.12909 97.626 8.38114 96.8822 7.82335L95.6822 9.42335ZM96.6196 10.7309C96.8501 11.3369 96.9742 12.0379 96.9742 12.8474H98.9742C98.9742 11.8328 98.8184 10.8858 98.4889 10.0198L96.6196 10.7309ZM96.9742 12.8474C96.9742 13.6657 96.8499 14.3759 96.6183 14.9911L98.4902 15.6956C98.8186 14.8228 98.9742 13.869 98.9742 12.8474H96.9742ZM96.6196 14.9878C96.3976 15.5714 96.0811 15.9968 95.6834 16.3036L96.905 17.8871C97.6273 17.3299 98.1509 16.5873 98.4889 15.6989L96.6196 14.9878ZM95.6834 16.3036C95.3329 16.574 94.8531 16.7434 94.1702 16.7434V18.7434C95.1994 18.7434 96.1356 18.4807 96.905 17.8871L95.6834 16.3036Z" fill="white"/>
</svg>
