<svg width="71" height="18" viewBox="0 0 71 18" fill="none" xmlns="http://www.w3.org/2000/svg">
<path fill-rule="evenodd" clip-rule="evenodd" d="M11.43 7.80537V13.5825H14.6077V7.20388C14.6077 6.1356 14.3179 5.22706 13.7008 4.52163C13.0671 3.78474 12.1463 3.44848 11.0209 3.44848C10.3482 3.44848 9.72377 3.59788 9.15638 3.90224C8.82526 4.07834 8.53202 4.2973 8.27781 4.55797C8.08596 4.33592 7.86205 4.14079 7.60691 3.97345C7.0611 3.61171 6.38626 3.44848 5.61465 3.44848C4.92548 3.44848 4.28881 3.60055 3.71428 3.91184L3.71336 3.91234L3.71244 3.91284C3.60753 3.97032 3.5064 4.03176 3.40909 4.09714V3.66569H0.5V13.5825H3.69451V7.67171C3.69451 7.23984 3.81125 6.932 4.01041 6.70651C4.20884 6.48255 4.4659 6.36451 4.82555 6.36451C5.21244 6.36451 5.4674 6.48814 5.64957 6.70568L5.65216 6.70878L5.65481 6.71183C5.8472 6.93331 5.97337 7.27732 5.97337 7.80537V13.5825H9.15109V7.67171C9.15109 7.38322 9.20449 7.14992 9.29743 6.96017C9.39762 6.76143 9.52753 6.621 9.6856 6.52362L9.68884 6.52163L9.69203 6.51958C9.84526 6.42156 10.036 6.36451 10.2821 6.36451C10.669 6.36451 10.924 6.48814 11.1061 6.70568L11.1087 6.70878L11.1114 6.71183C11.3038 6.93331 11.43 7.27732 11.43 7.80537ZM15.4902 11.3062L15.4912 11.308L15.4922 11.3099C15.9164 12.093 16.5105 12.7127 17.2698 13.1611C18.0363 13.6138 18.9174 13.8331 19.8981 13.8331C20.8727 13.8331 21.75 13.6169 22.5157 13.1708L22.5162 13.1705L22.5166 13.1702C23.2816 12.7221 23.8791 12.1024 24.3038 11.3185C24.7359 10.5257 24.9456 9.62334 24.9456 8.62407C24.9456 7.63088 24.739 6.73439 24.3127 5.94716C23.8883 5.15799 23.291 4.53514 22.5256 4.08661C21.7593 3.63419 20.8785 3.41507 19.8981 3.41507C18.9336 3.41507 18.0622 3.63178 17.2973 4.07734C16.5366 4.52046 15.9396 5.14045 15.5099 5.92819C15.0768 6.71663 14.8674 7.61975 14.8674 8.62407C14.8674 9.61654 15.0709 10.5145 15.4902 11.3062ZM28.0438 8.62407C28.0438 8.14875 28.0984 7.74276 28.2 7.40042L28.3292 7.06272C28.431 6.85591 28.5598 6.69821 28.7105 6.5795C28.9098 6.42675 29.1916 6.3311 29.5946 6.3311C30.0294 6.3311 30.3431 6.43702 30.5721 6.6138L30.5755 6.61641L30.5789 6.61894C30.8341 6.80834 31.0279 7.0668 31.157 7.41107L31.1574 7.41199L31.1577 7.41292C31.2927 7.76785 31.3636 8.16978 31.3636 8.62407C31.3636 9.08587 31.2949 9.49551 31.1639 9.85787C31.0385 10.1996 30.8527 10.4561 30.6119 10.6444C30.3944 10.8145 30.0955 10.9171 29.6785 10.9171C29.2349 10.9171 28.9297 10.818 28.7208 10.6637C28.5026 10.4982 28.3332 10.2598 28.2233 9.92242C28.1067 9.56488 28.0438 9.13445 28.0438 8.62407ZM28.3292 0.658216V3.68405C28.814 3.5027 29.3499 3.41507 29.9303 3.41507C30.8714 3.41507 31.7131 3.63963 32.4381 4.10387C33.1533 4.56184 33.7049 5.1901 34.0917 5.97742C34.485 6.76098 34.6756 7.64679 34.6756 8.62407C34.6756 9.58538 34.4875 10.4641 34.1016 11.251C33.722 12.0363 33.1838 12.6671 32.4869 13.1315C31.7789 13.6033 30.9602 13.8331 30.0479 13.8331C29.3024 13.8331 28.6302 13.7 28.0438 13.4209V13.5825H25.1347V0.658216H28.3292ZM37.0588 13.0732L35.4074 17.5924H38.4671L43.7048 4.26257V6.31439H45.2494V9.30911C45.2494 9.85229 45.2551 10.3408 45.2664 10.7744L45.2664 10.7745C45.2796 11.2757 45.4192 11.7619 45.673 12.2293L45.6744 12.2318L45.6758 12.2342C45.971 12.7618 46.4053 13.1492 46.9651 13.3879L46.968 13.3891L46.9709 13.3903C47.505 13.6092 48.0976 13.7205 48.742 13.7327C49.379 13.7502 50.0256 13.6972 50.6812 13.5749L51.0463 13.5067V10.7358L50.5394 10.8041C50.0251 10.8734 49.5653 10.8935 49.1582 10.8678C48.8299 10.8471 48.6527 10.7306 48.5422 10.5565L48.5419 10.5561C48.4921 10.4778 48.445 10.3417 48.4354 10.1143C48.4299 9.83498 48.4272 9.52209 48.4272 9.17544V6.31439H51.0463V3.66569H48.4272V1.15946H45.2494V3.66569H40.693L38.6303 9.01319L36.5545 3.66569H33.2153L37.0588 13.0732ZM54.1818 3.66569H51.2727V13.5825H54.4672V8.52382C54.4672 8.21915 54.5092 7.9611 54.585 7.74372L54.5854 7.74241L54.5859 7.74109C54.6626 7.51665 54.772 7.3323 54.9114 7.18102L54.9134 7.17878L54.9155 7.17651C55.0563 7.01938 55.2317 6.8907 55.448 6.79202L55.4515 6.79044L55.4549 6.7888C55.6672 6.68758 55.9106 6.62467 56.1908 6.60577L56.1942 6.60554L56.1976 6.60525C56.4916 6.58088 56.7256 6.60492 56.9099 6.66196L57.4893 6.84136V3.71688L57.0962 3.66898C56.7937 3.63211 56.4907 3.62578 56.1877 3.65009C55.8826 3.66902 55.5853 3.72184 55.2966 3.80891C55.0044 3.89148 54.7312 4.00943 54.4786 4.16363C54.3749 4.22456 54.2759 4.29073 54.1818 4.36214V3.66569ZM57.6139 0.407593V3.30691H60.7916V0.407593H57.6139ZM60.7916 3.66569H57.6139V13.5825H60.7916V3.66569ZM64.0244 9.84773L64.1536 10.1828C64.2561 10.3874 64.388 10.5445 64.5452 10.6637C64.7541 10.818 65.0593 10.9171 65.5029 10.9171C65.9198 10.9171 66.2187 10.8145 66.4363 10.6444C66.6773 10.4559 66.8632 10.1991 66.9886 9.85693C67.1194 9.4948 67.188 9.08547 67.188 8.62407C67.188 8.16978 67.1171 7.76785 66.9821 7.41292L66.9817 7.41199L66.9814 7.41107C66.8522 7.0668 66.6584 6.80834 66.4032 6.61894L66.3998 6.61641L66.3964 6.6138C66.1675 6.43702 65.8537 6.3311 65.4189 6.3311C65.016 6.3311 64.7342 6.42675 64.5349 6.5795C64.3257 6.74419 64.159 6.98394 64.0476 7.32573C63.9311 7.68327 63.8682 8.1137 63.8682 8.62407C63.8682 9.0994 63.9228 9.50538 64.0244 9.84773ZM63.8682 3.66569V3.8045C64.4253 3.54137 65.0578 3.41507 65.7547 3.41507C66.6958 3.41507 67.5375 3.63963 68.2625 4.10387C68.9776 4.56184 69.5293 5.1901 69.9161 5.97742C70.3094 6.76098 70.5 7.64679 70.5 8.62407C70.5 9.58538 70.3119 10.4641 69.926 11.251C69.5464 12.0363 69.0081 12.6671 68.3112 13.1315C67.6032 13.6033 66.7846 13.8331 65.8723 13.8331C65.245 13.8331 64.6696 13.7389 64.1536 13.5428V17.5924H60.9591V3.66569H63.8682ZM21.174 10.265L21.1746 10.2642C21.4689 9.86319 21.6335 9.32796 21.6335 8.62407C21.6335 7.88873 21.4645 7.3543 21.1726 6.9757L21.1716 6.9744L21.1706 6.97309C20.9087 6.62828 20.5116 6.43135 19.8981 6.43135C19.466 6.43135 19.1538 6.52759 18.9285 6.68496C18.6887 6.85245 18.5031 7.08732 18.3756 7.4079C18.2486 7.74137 18.1794 8.14391 18.1794 8.62407C18.1794 9.36567 18.346 9.9029 18.6323 10.2811C18.9008 10.6239 19.2981 10.8168 19.8981 10.8168C20.5219 10.8168 20.918 10.6153 21.174 10.265Z" fill="#0064D3"/>
</svg>
